# xmcd
# 
# Track frame offsets:
#     150
#     14522
#     39700
#     60000
# 
# Disc length: 1120
# 
# Revision: 2
# Processed by: cddbd v1.5.2PL0 Copyright (c) Steve Scherf et al.
# Submitted via: fre:ac v1.0.27
# 
DISCID=27045e04
DTITLE=PEARL - E=MC2
DYEAR=1988
DGENRE=Rock
TTITLE0=Step Out Of The Road
TTITLE1=アコースティック・レディ
TTITLE2=Bluesをやらないかい
TTITLE3=Wild and Sugger
EXTD=YEAR: 1988
EXTT0=
EXTT1=
EXTT2=
EXTT3=
PLAYORDER=
